<svg width="25" height="25" viewBox="0 0 25 25" fill="none" xmlns="http://www.w3.org/2000/svg">
<g clip-path="url(#clip0_405_2)">
<path d="M12.5 25C5.66035 25 0.0959015 19.3926 0.0959015 12.5C0.0959015 5.60742 5.66035 0 12.5 0C19.3397 0 24.9041 5.60742 24.9041 12.5C24.9041 19.3926 19.3397 25 12.5 25ZM12.5 0.78125C6.09121 0.78125 0.877151 6.03828 0.877151 12.5C0.877151 18.9617 6.09121 24.2188 12.5 24.2188C18.9088 24.2188 24.1229 18.9617 24.1229 12.5C24.1229 6.03828 18.9088 0.78125 12.5 0.78125Z" fill="#282D33"/>
<path d="M12.4996 23.0353C6.73438 23.0353 2.04414 18.3092 2.04414 12.5C2.04414 6.69082 6.73438 1.96465 12.4996 1.96465C18.2648 1.96465 22.9551 6.69082 22.9551 12.5C22.9551 18.3092 18.2648 23.0353 12.4996 23.0353ZM12.4996 2.7459C7.16524 2.7459 2.82539 7.12148 2.82539 12.5C2.82539 17.8785 7.16524 22.2541 12.4996 22.2541C17.8342 22.2541 22.1738 17.8785 22.1738 12.5C22.1738 7.12148 17.8342 2.7459 12.4996 2.7459Z" fill="#282D33"/>
<path d="M12.8902 3.45097H12.109V5.33086H12.8902V3.45097Z" fill="#282D33"/>
<path d="M17.3274 4.85707L16.6496 4.46896L15.7175 6.09677L16.3953 6.48487L17.3274 4.85707Z" fill="#282D33"/>
<path d="M20.4716 8.31319L20.0786 7.63795L18.4638 8.57774L18.8567 9.25297L20.4716 8.31319Z" fill="#282D33"/>
<path d="M21.4772 12.1096H19.6121V12.8908H21.4772V12.1096Z" fill="#282D33"/>
<path d="M20.4731 16.6868L18.8575 15.7466L18.4645 16.4218L20.0802 17.3621L20.4731 16.6868Z" fill="#282D33"/>
<path d="M17.3266 20.1423L16.3945 18.5145L15.7166 18.9027L16.6486 20.5305L17.3266 20.1423Z" fill="#282D33"/>
<path d="M12.8904 19.6691H12.1092V21.5492H12.8904V19.6691Z" fill="#282D33"/>
<path d="M9.28211 18.9033L8.60422 18.515L7.67167 20.1428L8.34956 20.5311L9.28211 18.9033Z" fill="#282D33"/>
<path d="M6.53706 16.4229L6.14435 15.7478L4.529 16.6874L4.92171 17.3625L6.53706 16.4229Z" fill="#282D33"/>
<path d="M5.3873 12.1096H3.52226V12.8908H5.3873V12.1096Z" fill="#282D33"/>
<path d="M6.53604 8.57829L4.92123 7.63803L4.52811 8.31319L6.14291 9.25344L6.53604 8.57829Z" fill="#282D33"/>
<path d="M9.28245 6.0976L8.35037 4.46927L7.67233 4.85739L8.60441 6.48572L9.28245 6.0976Z" fill="#282D33"/>
<path d="M12.4998 13.4563C12.2648 13.4563 12.0391 13.3695 11.8643 13.2117C11.4748 12.8613 11.441 12.2564 11.7889 11.8635C11.9695 11.66 12.2285 11.5432 12.5 11.5432C12.735 11.5432 12.9609 11.6301 13.1359 11.7879C13.5246 12.1387 13.5584 12.7434 13.2115 13.1357C13.0299 13.34 12.7709 13.4563 12.4998 13.4563ZM12.4998 12.3246C12.4715 12.3246 12.4176 12.332 12.3734 12.3816C12.309 12.4545 12.315 12.5666 12.3871 12.6314C12.4273 12.6678 12.4705 12.6752 12.4998 12.6752C12.5281 12.6752 12.5822 12.6678 12.6268 12.6178C12.6904 12.5455 12.6844 12.4332 12.6123 12.3682C12.5725 12.332 12.5291 12.3246 12.4998 12.3246Z" fill="#282D33"/>
<path d="M17.0733 7.93381L16.4888 7.41537L12.5824 11.8192L13.1669 12.3377L17.0733 7.93381Z" fill="#282D33"/>
<path d="M12.5183 11.988L8.6713 8.52005L8.14817 9.10036L11.9952 12.5683L12.5183 11.988Z" fill="#282D33"/>
</g>
<defs>
<clipPath id="clip0_405_2">
<rect width="25" height="25" fill="white"/>
</clipPath>
</defs>
</svg>
