<svg width="25" height="25" viewBox="0 0 25 25" fill="none" xmlns="http://www.w3.org/2000/svg">
<g clip-path="url(#clip0_408_2)">
<path d="M12.8281 10.1221H2.05742L0.080658 6.9418L2.05742 3.76114H12.8281V10.1221ZM2.4916 9.34083H12.0469V4.54239H2.4916L1.00058 6.9418L2.4916 9.34083Z" fill="#282D33"/>
<path d="M14.6336 17.2859H13.8523V0.78125H11.148V2.89512H10.3668V0H14.6336V17.2859Z" fill="#282D33"/>
<path d="M11.148 10.9094H10.3668V17.2859H11.148V10.9094Z" fill="#282D33"/>
<path d="M15.9408 20.6711H9.05917V18.2516H15.9408V20.6711ZM9.84042 19.8898H15.1596V19.0328H9.84042V19.8898Z" fill="#282D33"/>
<path d="M22.9431 7.5293H14.4783V6.74805H22.5086L23.9998 4.34824L22.5086 1.94922H14.4783V1.16797H22.9428L24.9195 4.34824L22.9431 7.5293Z" fill="#282D33"/>
<path d="M20.7531 3.9584H14.4783V4.73965H20.7531V3.9584Z" fill="#282D33"/>
<path d="M10.5275 6.55118H4.48514V7.33243H10.5275V6.55118Z" fill="#282D33"/>
<path d="M23.8871 19.8898H16.9154V20.6711H23.8871V19.8898Z" fill="#282D33"/>
<path d="M8.08458 19.8898H1.1127V20.6711H8.08458V19.8898Z" fill="#282D33"/>
<path d="M12.5002 21.9955H5.5285V22.7768H12.5002V21.9955Z" fill="#282D33"/>
<path d="M12.5002 24.2188H8.90234V25H12.5002V24.2188Z" fill="#282D33"/>
<path d="M18.3097 21.9955H13.8943V22.7768H18.3097V21.9955Z" fill="#282D33"/>
</g>
<defs>
<clipPath id="clip0_408_2">
<rect width="25" height="25" fill="white"/>
</clipPath>
</defs>
</svg>
