<svg width="340" height="340" viewBox="0 0 340 340" fill="none" xmlns="http://www.w3.org/2000/svg">
<path d="M282.662 292.85V314.163C282.657 315.845 283.178 317.486 284.152 318.858C285.126 320.229 286.504 321.261 288.094 321.81C293.505 324.31 321.247 329.022 321.862 314.846V292.846L282.662 292.85Z" fill="#F6B630"/>
<path d="M24.55 271.7L14.542 285.443C7.202 296.324 22.832 308.569 38.658 309.784C40.5112 309.957 42.3755 309.604 44.0378 308.767C45.7001 307.93 47.0933 306.642 48.058 305.05L60.3 284.794L24.55 271.7Z" fill="#F6B630"/>
<path d="M103.85 265.914L102.35 285.814C102.114 288.946 102.823 292.077 104.385 294.802C105.947 297.527 108.289 299.722 111.111 301.102C131.004 310.856 179.885 324.685 237.619 306.972C243.634 305.126 247.51 299.238 247.783 292.952L249.112 262.385L103.85 265.914Z" fill="#F6B630"/>
<path d="M254.059 61.161C254.059 61.161 184.537 53.085 115.367 59.054C115.367 59.054 90.437 60.454 82.713 95.922C79.492 107.435 65.979 180.567 60.227 189.433L22.788 265.215C21.8263 267.139 21.3696 269.276 21.4607 271.424C21.5519 273.573 22.1879 275.664 23.309 277.499C27.383 284.081 36.345 292.522 55.001 289.975C56.9861 289.713 58.8827 288.991 60.5399 287.867C62.197 286.743 63.5691 285.247 64.547 283.5C72.468 269.23 94.27 229.175 100.269 210.036C100.269 210.036 94.386 239.45 98.595 261.619C99.2873 265.22 100.922 268.574 103.332 271.338C105.743 274.102 108.842 276.177 112.316 277.353C134.04 284.764 188.201 298.885 242.988 279.112C246.29 277.915 249.186 275.807 251.341 273.033C253.495 270.259 254.82 266.931 255.162 263.435L264.593 167.55L276.006 190.624C279.123 196.926 280.744 203.862 280.744 210.892V287.515C281.106 302.229 300.39 308.415 317.901 301.215C320.525 300.165 322.782 298.368 324.394 296.046C326.005 293.725 326.9 290.981 326.966 288.156C327.397 269.071 328.074 222.624 325.337 193.885C325.337 193.885 320.393 149.128 310.281 110.685C303.388 84.342 281.105 64.4 254.059 61.161Z" fill="#F6B630"/>
<path d="M152.36 211.355C161.917 213.287 180.738 216.128 198.96 213.305C200.886 212.995 202.861 213.314 204.592 214.214C206.322 215.115 207.717 216.55 208.568 218.305C211.562 225.127 219.528 233.423 224.319 239.117C228.572 243.795 228.103 249.717 227.669 255.552C227.562 257.69 226.748 259.732 225.354 261.357C223.961 262.983 222.066 264.098 219.969 264.529C202.035 268.229 159.177 274.229 125.43 260.27C120.225 258.037 119.924 252.596 120.165 247.608C120.165 245.553 120.582 243.52 121.391 241.631C122.2 239.743 123.384 238.038 124.871 236.62C130.649 231.161 138.224 224.563 141.822 217.415C143.579 213.252 147.769 210.357 152.36 211.355Z" fill="#F6B630"/>
<path d="M281.614 71.115C273.298 65.7594 263.878 62.3563 254.059 61.161C254.059 61.161 190.94 53.829 125.148 58.3C135.8 59.475 143.71 66 153.735 83.675C166.367 104.811 185.698 114.143 212.323 113.059C247.867 110.643 258.223 80.744 258.223 80.744C258.223 80.744 263.4 66.857 281.614 71.115Z" fill="#FF9800"/>
<path d="M115.81 48.755C118.727 26.966 143.985 11.072 168.354 16.209C186.26 20.341 205.529 23.147 224.034 20.852C246.611 18.087 284.511 24.98 282.572 57.309C282.611 58.649 282.343 59.9801 281.787 61.2001C281.231 62.42 280.403 63.4963 279.366 64.3462C278.33 65.1961 277.112 65.7969 275.806 66.1025C274.501 66.4081 273.143 66.4103 271.837 66.109C266.186 64.709 258.298 65.475 251.125 75.78C226.762 113.18 179.541 108.087 154.218 72.129C150.778 67.5089 146.24 63.8207 141.013 61.3988C135.787 58.9769 130.04 57.898 124.291 58.26C123.067 58.334 121.843 58.1297 120.709 57.6626C119.576 57.1955 118.563 56.4776 117.747 55.5629C116.931 54.6481 116.332 53.5604 115.997 52.3813C115.662 51.2022 115.598 49.9624 115.81 48.755Z" fill="#F6B630"/>
<path d="M157.523 36.184C163.449 35.852 173.472 35.994 187.21 38.634C209.48 43.31 224.585 38.072 249.334 41.34C249.465 41.3543 249.587 41.4116 249.682 41.5029C249.777 41.5943 249.838 41.7145 249.857 41.8448C249.876 41.975 249.852 42.1078 249.787 42.2225C249.722 42.3371 249.621 42.427 249.5 42.478C246.935 43.509 242.942 45.962 238.661 51.797C233.829 58.71 232.985 62.984 223.939 72.132C203.718 90.832 177.269 77.183 169.363 51.781C167.589 46.3792 163.796 41.8718 158.777 39.2C158.253 38.9287 157.707 38.6737 157.138 38.435C156.893 38.3333 156.689 38.1514 156.561 37.919C156.433 37.6866 156.387 37.4175 156.432 37.1559C156.477 36.8942 156.609 36.6556 156.807 36.479C157.006 36.3024 157.258 36.1984 157.523 36.184Z" fill="#FF9800"/>
<path d="M286.965 325.123C296.729 328.875 324.649 332.177 325.365 314.846V300.34C328.54 297.098 330.363 292.77 330.465 288.234C330.89 269.424 331.582 222.542 328.816 193.5C328.766 193.05 323.727 148.044 313.665 109.8C308.921 91.9392 297.443 76.6104 281.639 67.031C283.011 65.8645 284.115 64.4168 284.878 62.786C285.642 61.1552 286.045 59.3794 286.062 57.579C287.23 42.373 277.869 27.848 263.299 22.257C250.666 17.491 237.075 15.8168 223.663 17.374C208.683 18.9532 193.545 18.0818 178.845 14.794C163.833 10.71 147.234 10.349 133.859 18.303C118.773 26.393 108.638 45.642 113.613 55.745C107.643 56.677 86.459 62.279 79.294 95.173L62.04 173.773C61.467 182.866 23.759 253.928 19.651 263.666C18.0041 266.964 17.5304 270.725 18.308 274.329L11.708 283.383C2.30002 297.471 20.649 312.489 39.55 313.326C41.861 313.323 44.1326 312.727 46.1473 311.595C48.162 310.462 49.8525 308.832 51.057 306.86L59.95 292.139C63.1863 290.715 65.8732 288.28 67.607 285.199C71.189 278.746 78.237 265.884 85.196 252.25C85.405 251.841 85.5313 251.394 85.5678 250.936C85.6042 250.478 85.55 250.017 85.4083 249.579C85.2666 249.142 85.0401 248.737 84.7419 248.387C84.4436 248.038 84.0794 247.75 83.67 247.541C83.2606 247.332 82.8141 247.206 82.3559 247.169C81.8976 247.133 81.4368 247.187 80.9995 247.329C80.5622 247.47 80.1571 247.697 79.8074 247.995C79.4576 248.293 79.17 248.658 78.961 249.067C72.05 262.607 65.046 275.388 61.487 281.802C60.7691 283.07 59.7671 284.154 58.5597 284.97C57.3523 285.785 55.9723 286.31 54.528 286.502C37.328 289.662 20.975 277.702 25.928 266.76C30.828 255.245 67.787 186.306 68.88 175.269L86.133 96.667C95.42 59.982 115.3 63.029 125.268 61.72C130.317 61.5214 135.339 62.5581 139.897 64.7403C144.455 66.9224 148.411 70.1841 151.423 74.242C158.642 83.702 166.807 91.498 176.593 97.334V111.2C176.939 125.867 173.068 146.725 170.948 161.372C170.337 165.906 177.094 166.972 177.87 162.413C180.064 147.255 183.944 126.387 183.593 111.2V100.78C186.564 102.004 189.633 102.976 192.767 103.686C197.281 104.612 198.767 97.946 194.304 96.857C187.946 95.429 181.926 92.7778 176.58 89.051C169.09 83.7868 162.485 77.3653 157.012 70.027C153.277 65.0082 148.362 60.9875 142.703 58.321C137.044 55.6544 130.814 54.4241 124.566 54.739C123.838 54.8475 123.094 54.7826 122.396 54.5496C121.698 54.3166 121.064 53.9221 120.547 53.3982C120.03 52.8742 119.643 52.2357 119.419 51.5343C119.195 50.833 119.14 50.0887 119.258 49.362C121.958 29.402 145.153 14.928 167.707 19.649C170.832 20.237 174.069 20.902 177.328 21.626C192.768 25.0775 208.666 25.9918 224.4 24.333C236.711 22.8932 249.188 24.4214 260.787 28.79C272.487 33.281 280.011 44.897 279.079 57.04C279.131 57.9823 278.949 58.9228 278.549 59.7777C278.149 60.6327 277.544 61.3755 276.788 61.94C276.197 62.3537 275.524 62.6366 274.815 62.7699C274.106 62.9032 273.376 62.8838 272.675 62.713C267.4 61.309 256.7 61.27 248.107 74.01C246.169 77.0702 243.934 79.932 241.435 82.554C233.012 91.5402 221.518 97.0323 209.235 97.941C208.639 97.9944 208.066 98.1972 207.57 98.5308C207.073 98.8643 206.669 99.3177 206.394 99.849C206.181 100.278 206.054 100.744 206.021 101.222C206.002 101.547 204.157 134.175 204.621 164.509C204.635 165.437 205.018 166.322 205.684 166.968C206.35 167.615 207.246 167.97 208.175 167.956C209.103 167.941 209.987 167.559 210.634 166.893C211.28 166.226 211.635 165.33 211.621 164.402C211.243 139.61 212.421 113.267 212.856 104.591C225.748 102.924 237.658 96.8235 246.545 87.336C249.361 84.3738 251.88 81.1419 254.064 77.687C259.118 70.466 264.922 67.868 271.513 69.61C280.149 73.5517 287.803 79.3608 293.922 86.6184C300.042 93.876 304.474 102.401 306.9 111.579C316.828 149.315 321.813 193.823 321.856 194.216C324.582 222.835 323.893 269.389 323.471 288.076C323.422 290.216 322.745 292.295 321.524 294.053C320.303 295.811 318.591 297.172 316.603 297.965C301.787 304.165 284.559 299.533 284.248 287.515V210.892C284.239 203.325 282.495 195.86 279.148 189.073C278.951 188.65 278.672 188.271 278.326 187.957C277.981 187.644 277.576 187.403 277.136 187.248C276.696 187.093 276.229 187.028 275.764 187.056C275.298 187.084 274.843 187.205 274.424 187.412C274.006 187.618 273.633 187.906 273.328 188.259C273.023 188.612 272.791 189.022 272.647 189.466C272.502 189.91 272.448 190.378 272.487 190.842C272.526 191.307 272.658 191.76 272.874 192.173C275.744 197.995 277.241 204.398 277.249 210.889V287.512C277.248 290.325 277.904 293.099 279.167 295.612V314.159C279.159 316.572 279.907 318.927 281.306 320.893C282.704 322.859 284.683 324.338 286.965 325.123ZM48.492 293.936C49.217 293.936 49.964 293.912 50.722 293.877L45.066 303.241C44.4381 304.268 43.5351 305.099 42.4593 305.639C41.3835 306.18 40.1779 306.408 38.979 306.299C26.373 305.549 11.929 295.452 17.371 287.499L21.771 281.454C25.908 287.031 33.956 293.937 48.492 293.936ZM286.162 303.027C294.49 308.561 307.449 309.327 318.362 304.779V314.846C318.368 315.747 318.106 316.63 317.611 317.383C317.116 318.136 316.409 318.725 315.579 319.077C305.964 323.112 294.94 320.446 289.223 318.497C288.324 318.184 287.546 317.599 286.997 316.821C286.448 316.044 286.156 315.115 286.162 314.163V303.027Z" fill="black"/>
<path d="M198.406 285.082C193.176 285.932 194.786 293.145 199.969 291.976C205.169 291.129 203.545 283.909 198.406 285.082Z" fill="black"/>
<path d="M226.474 74.547C231.172 69.8527 235.193 64.5272 238.423 58.724C239.237 57.2229 240.137 55.7698 241.118 54.372C247.25 45.746 252.518 45.231 252.47 45.231C256.821 45.318 257.225 38.851 252.87 38.264C230.752 34.387 209.688 39.764 187.864 35.197C164.075 30.624 151.03 33.343 150.486 33.461C149.674 33.6339 148.95 34.0898 148.443 34.7472C147.937 35.4046 147.68 36.2207 147.719 37.0499C147.758 37.879 148.091 38.6672 148.658 39.2737C149.225 39.8802 149.988 40.2656 150.813 40.361C154.293 40.7574 157.584 42.1535 160.288 44.3806C162.992 46.6076 164.992 49.5701 166.048 52.91C171.611 69.61 185.058 84.419 202.921 84.266C211.744 84.2483 220.206 80.7567 226.474 74.547ZM172.674 50.658C171.264 46.4205 168.787 42.6176 165.48 39.616C172.553 39.8774 179.594 40.6979 186.538 42.07C204.761 46.223 222.465 42.627 240.85 44.045C232.156 52.145 232.239 59.017 221.566 69.553C202.521 87.047 179.464 72.641 172.678 50.658H172.674Z" fill="black"/>
<path d="M153.054 207.924C146.976 206.631 141.195 210.148 138.754 215.735C135.375 222.478 127.862 228.927 122.454 234.088C120.628 235.836 119.174 237.935 118.179 240.258C117.184 242.582 116.669 245.082 116.664 247.61C116.264 254.477 117.515 260.627 124.091 263.51C150.446 275.867 199.233 273.148 220.676 267.96C223.533 267.373 226.114 265.852 228.012 263.638C229.911 261.424 231.02 258.642 231.165 255.729L231.451 249.924C231.695 245.151 230.092 240.468 226.976 236.845L217.876 226.229C215.422 223.366 213.353 220.194 211.721 216.795C210.553 214.355 208.625 212.36 206.228 211.107C203.83 209.855 201.091 209.414 198.421 209.849C180.754 212.583 162.412 209.817 153.054 207.924ZM199.501 216.764C200.685 216.566 201.901 216.757 202.968 217.308C204.034 217.859 204.893 218.741 205.416 219.822C207.312 223.771 209.716 227.455 212.567 230.782L221.667 241.397C223.616 243.663 224.618 246.592 224.467 249.577L224.181 255.377C224.112 256.74 223.592 258.042 222.703 259.078C221.814 260.114 220.605 260.825 219.268 261.099C206.33 263.769 161.425 271.368 126.773 257.034C125.792 256.536 124.977 255.763 124.426 254.81C123.876 253.857 123.614 252.765 123.673 251.666C123.473 247.166 123.673 242.366 127.294 239.151L135.501 231.325C139.246 227.757 142.417 223.631 144.901 219.094C146.11 216.277 148.461 214.103 151.672 214.782C161.483 216.771 180.751 219.669 199.5 216.764H199.501Z" fill="black"/>
<path d="M251.275 293.108L251.951 277.548C255.745 273.897 258.118 269.017 258.645 263.778C262.162 228.025 270.305 145.627 273.422 110.665C273.782 106.159 266.975 105.375 266.453 110.013L261.11 167.206L251.678 263.093C251.394 265.928 250.317 268.626 248.57 270.877C246.823 273.128 244.476 274.841 241.8 275.82C233.097 278.947 224.143 281.33 215.037 282.942C214.579 283.016 214.14 283.181 213.746 283.427C213.353 283.672 213.012 283.994 212.743 284.372C212.475 284.751 212.284 285.179 212.183 285.632C212.081 286.084 212.071 286.553 212.152 287.01C212.234 287.467 212.405 287.903 212.656 288.293C212.908 288.683 213.234 289.019 213.617 289.282C213.999 289.544 214.43 289.729 214.885 289.823C215.339 289.918 215.807 289.921 216.263 289.833C225.965 288.129 235.496 285.567 244.744 282.175L244.282 292.805C244.062 297.855 240.898 302.305 236.588 303.63C218.695 309.164 200.075 311.991 181.345 312.017C142.859 312.017 116.577 299.891 112.645 297.963C104.21 293.457 105.77 286.405 106.412 278.424C123.675 285.956 146.946 291.716 182.354 292.699C183.282 292.702 184.174 292.337 184.832 291.682C185.491 291.028 185.863 290.139 185.866 289.211C185.869 288.283 185.503 287.391 184.849 286.733C184.195 286.074 183.306 285.702 182.378 285.699C158.929 285.475 135.663 281.54 113.444 274.041C110.558 273.062 107.981 271.337 105.977 269.041C103.973 266.745 102.611 263.959 102.031 260.967C98.002 239.744 103.641 211.01 103.698 210.722C106.324 166.591 111.678 124.133 111.768 123.73L113.634 103.903C113.681 103.444 113.636 102.979 113.502 102.537C113.369 102.095 113.149 101.684 112.856 101.327C112.563 100.97 112.202 100.675 111.794 100.458C111.386 100.242 110.94 100.108 110.48 100.065C110.02 100.021 109.556 100.069 109.115 100.206C108.674 100.343 108.265 100.566 107.91 100.862C107.555 101.157 107.263 101.52 107.049 101.93C106.835 102.339 106.705 102.787 106.665 103.247C104.236 133.026 101.022 145.079 96.786 209.594C96.486 212.157 87.68 256.476 99.834 272.577L98.853 285.554C98.5524 289.386 99.4135 293.219 101.324 296.554C103.234 299.889 106.106 302.57 109.563 304.249C141.081 320.538 198.107 323.977 238.639 310.322C245.847 308.111 250.924 301.193 251.275 293.108Z" fill="black"/>
</svg>
