<svg width="25" height="25" viewBox="0 0 25 25" fill="none" xmlns="http://www.w3.org/2000/svg">
<path d="M21.6576 25H3.34238V0H14.8941V0.78125H4.12363V24.2188H20.8764V6.63008H21.6576V25Z" fill="#282D33"/>
<path d="M21.5066 5.36387H16.2824V0.250198L21.5066 5.36387ZM17.0637 4.58262H19.5916L17.0637 2.10801V4.58262Z" fill="#282D33"/>
<path d="M11.69 5.4498H6.26074V6.23105H11.69V5.4498Z" fill="#282D33"/>
<path d="M17.6881 8.75098H6.16132V9.53223H17.6881V8.75098Z" fill="#282D33"/>
<path d="M17.6881 11.5529H6.16132V12.3342H17.6881V11.5529Z" fill="#282D33"/>
<path d="M17.6881 14.3543H6.16132V15.1355H17.6881V14.3543Z" fill="#282D33"/>
<path d="M17.6074 17.1561H6.16132V17.9373H17.6074V17.1561Z" fill="#282D33"/>
<path d="M9.86796 19.9826H6.16132V20.7639H9.86796V19.9826Z" fill="#282D33"/>
</svg>
