<svg width="340" height="340" viewBox="0 0 340 340" fill="none" xmlns="http://www.w3.org/2000/svg">
<path d="M269.828 61.368L215.242 28.793L182.835 25.585L96.143 38.011C91.3836 38.6939 86.9619 40.864 83.51 44.211L26.574 99.383L62.51 149.759L83.046 137.887C83.046 137.887 68.416 226.674 51.253 281.808C50.6716 283.655 50.6465 285.632 51.1808 287.493C51.7152 289.354 52.7854 291.016 54.258 292.273C69.99 305.649 123.646 342.657 216.258 321.358C218.142 320.921 219.855 319.939 221.183 318.534C222.511 317.129 223.395 315.363 223.725 313.458C227.644 290.908 241.225 213.195 251.825 157.785L261.451 180.245C261.451 180.245 290.624 168.373 313.431 142.062C303.184 117.173 291.328 92.9762 277.939 69.626C275.991 66.2209 273.198 63.3764 269.828 61.368Z" fill="#FA8084"/>
<path d="M167.548 79.785L179.67 96.085C187.784 92.098 216.054 82.8 225.038 79.785C225.038 79.785 236.185 43.556 220.256 21.1C208.773 15.1018 195.988 12.03 183.034 12.157L157.726 24.04C157.726 24.04 147.289 56.383 167.548 79.785Z" fill="#F84954"/>
<path d="M183.034 12.157C183.034 12.157 145.812 25.175 167.548 79.785C167.548 79.785 149.616 65.114 130.326 71.906C130.326 71.906 130.869 12.157 183.034 12.157Z" fill="#FFF8EB"/>
<path d="M192.271 90.859C192.271 90.859 234.112 65.929 220.256 21.1C220.256 21.1 256.39 36.315 239.274 96.087C239.274 96.087 224.331 86.24 192.271 90.859Z" fill="#FFF8EB"/>
<path d="M51.991 294.939C92.041 329.754 160.399 339.23 217.043 324.768C219.601 324.181 221.927 322.851 223.73 320.944C225.533 319.037 226.731 316.64 227.174 314.053C230.831 293.018 242.93 223.789 253.121 169.701L258.23 181.62C258.591 182.463 259.269 183.13 260.117 183.479C260.965 183.827 261.917 183.829 262.766 183.483C263.988 182.983 292.981 170.989 316.071 144.351C316.49 143.868 316.768 143.28 316.876 142.651C316.985 142.021 316.918 141.374 316.685 140.779C306.359 115.74 294.431 91.3919 280.975 67.886C278.727 63.9611 275.505 60.6814 271.621 58.363L256.821 49.529C256.426 49.2844 255.987 49.1209 255.528 49.0479C255.069 48.9749 254.6 48.994 254.149 49.104C253.698 49.2139 253.273 49.4127 252.899 49.6885C252.526 49.9644 252.211 50.3118 251.973 50.7107C251.734 51.1095 251.578 51.5518 251.513 52.0116C251.447 52.4715 251.474 52.9398 251.592 53.3892C251.709 53.8386 251.915 54.2601 252.197 54.6292C252.479 54.9983 252.831 55.3076 253.234 55.539L268.034 64.374C270.884 66.0737 273.248 68.479 274.898 71.358C287.807 93.9683 299.32 117.348 309.372 141.365C291.972 160.752 271.057 171.865 263.258 175.581L255.038 156.402C254.733 155.725 254.221 155.162 253.577 154.793C252.932 154.424 252.187 154.268 251.449 154.349C250.711 154.429 250.017 154.74 249.466 155.239C248.916 155.737 248.537 156.397 248.384 157.124C237.8 212.461 224.2 290.312 220.277 312.855C220.068 314.083 219.501 315.221 218.647 316.127C217.793 317.033 216.69 317.666 215.477 317.947C149.734 335.13 83.623 314.747 56.529 289.604C55.5788 288.792 54.8889 287.719 54.5453 286.517C54.2017 285.316 54.2197 284.039 54.597 282.848C71.638 228.105 86.353 139.348 86.503 138.448L87.926 129.663C88.0744 128.747 87.8527 127.809 87.3097 127.056C86.7667 126.303 85.9468 125.797 85.0305 125.649C84.1142 125.5 83.1764 125.722 82.4236 126.265C81.6707 126.808 81.1644 127.628 81.016 128.544L79.593 137.329C79.393 138.558 64.775 226.605 47.913 280.768C47.1265 283.27 47.0938 285.947 47.819 288.467C48.5442 290.987 49.9952 293.238 51.991 294.939Z" fill="black"/>
<path d="M213.6 86.245C209.022 86.088 208.652 92.935 213.254 93.237C229.427 94.037 237.288 98.971 237.354 99.009C237.814 99.3062 238.337 99.492 238.881 99.5518C239.425 99.6117 239.976 99.5438 240.489 99.3537C241.003 99.1635 241.465 98.8563 241.839 98.4565C242.213 98.0566 242.489 97.575 242.644 97.05C253.897 55.65 243.991 30.471 221.853 17.977C204.253 7.55201 160.747 0.587008 141.378 27.993L95.647 34.547C90.1532 35.324 85.0492 37.8292 81.074 41.7L24.138 96.87C23.5364 97.4529 23.1639 98.2321 23.0879 99.0662C23.0119 99.9004 23.2376 100.734 23.724 101.416L59.661 151.792C59.9849 152.246 60.4128 152.617 60.9089 152.872C61.405 153.127 61.955 153.26 62.513 153.26C63.803 153.545 69.488 149.588 70.662 149.09C74.608 146.699 71.178 140.805 67.162 143.03L63.517 145.137L31.171 99.8L85.945 46.721C88.8646 43.8814 92.6121 42.0445 96.645 41.476L136.311 35.79C128.7 49.6 124.542 73.223 128.291 74.753C128.749 75.0803 129.278 75.2925 129.835 75.3715C130.393 75.4505 130.96 75.3941 131.491 75.207C147.37 69.616 162.72 80.514 165.028 82.258L174.697 95.258C169.087 98.925 163.839 102.315 162.588 109.446L159.58 124.863C159.402 125.774 159.594 126.719 160.112 127.489C160.631 128.259 161.434 128.791 162.345 128.969C163.256 129.147 164.201 128.955 164.971 128.437C165.741 127.918 166.273 127.115 166.451 126.204L169.459 110.786C169.949 108.243 171.422 105.996 173.559 104.533L181.351 99.177L193.613 94.09C193.763 94.009 193.913 93.936 194.065 93.863C209.379 84.944 231.676 58.555 225.709 28.902C234.192 36.338 246.416 54.063 237.009 91.055C232.667 89.233 224.923 86.805 213.6 86.245ZM160.955 71.6C154.355 68.107 143.139 65.242 134.155 67.252C135.855 47.734 146.461 22.709 169.242 17.352C155.8 31.5 154.5 49.75 160.955 71.6ZM208.784 70.525C203.802 77.2812 197.67 83.108 190.668 87.739L180.85 91.812L170.65 78.089C159.444 51.756 162.761 24.936 183.718 15.66C195.357 15.7129 206.834 18.3886 217.296 23.488C222.116 40.367 219.273 56.187 208.784 70.521V70.525Z" fill="black"/>
<path d="M185.943 115.157C183.329 111.377 177.637 115.174 180.123 119.037C182.732 122.824 188.434 119.02 185.943 115.157Z" fill="black"/>
</svg>
