<svg width="340" height="340" viewBox="0 0 340 340" fill="none" xmlns="http://www.w3.org/2000/svg">
<path d="M25.547 205.807C25.547 205.807 7.99999 212.245 10.188 233.95C10.94 241.932 17.266 248.612 25.547 248.705C25.547 248.705 41.837 267.738 63.922 248.705L68.231 236.855L25.547 205.807Z" fill="#FFF8EB"/>
<path d="M87.075 277.059C87.075 277.059 111.811 239.83 157.784 253.073L195.263 105.159L189.516 56.937L132.3 59.685L102.317 96.664C102.317 96.664 79.08 234.667 87.075 277.059Z" fill="#BC6C25"/>
<path d="M264.926 263.333C263.288 265.381 262.134 267.771 261.549 270.327C260.965 272.883 260.965 275.538 261.549 278.094C262.88 284.15 269.693 289.264 275.592 284.204C275.592 284.204 297.183 300.879 313.858 278.432C317.619 277.704 321.09 275.908 323.858 273.261C326.627 270.613 328.574 267.225 329.469 263.5C331.997 254.039 325.326 244.251 315.522 243.951L264.926 263.333Z" fill="#FFF8EB"/>
<path d="M213.344 69.163C213.344 69.163 191.989 78.968 147.307 155.052C146.104 159.971 146.104 165.108 147.307 170.027C147.307 170.027 139.093 190.396 148.621 210.438C148.621 210.438 140.736 229.822 148.293 255.12C143.562 268.901 135.141 308.379 169.629 313.168C181.42 314.268 195.967 313.392 208.571 306.057C213.349 303.276 217.511 299.552 220.805 295.113C224.099 290.673 226.456 285.609 227.732 280.23C229.008 274.851 229.177 269.269 228.229 263.823C227.28 258.377 225.234 253.18 222.215 248.549C222.215 248.549 232.071 229.165 220.244 204.524C220.244 204.524 227.727 199.267 230.392 179.554C230.392 179.554 237.328 192.696 247.513 198.61C247.513 198.61 247.185 219.31 260.655 232.122C260.655 232.122 257.698 248.549 264.926 263.333C264.926 263.333 304.194 273.518 315.526 243.949C315.526 243.949 315.197 224.237 305.012 212.08C305.012 212.08 307.641 188.425 284.643 156.556C284.643 156.556 278.72 113.262 244.56 92.162C244.556 92.162 238.642 76.391 213.344 69.163Z" fill="#F59200"/>
<path d="M107.242 164.905C107.242 164.905 112.903 158.1 111.647 147.078C106.175 103.013 108.479 79.109 108.479 79.109C58.654 103.3 53.47 139.59 53.47 139.59C33.31 149.09 35.038 174.726 35.038 174.726C19.764 180.84 12.778 198.111 17.438 213.454C25.489 240.754 61.538 236.935 61.538 236.935C54.386 255.555 49.254 288.152 75.664 296.961C103.087 304.461 93.636 251.039 93.636 251.039C93.657 250.991 100.486 229.511 99.304 208.127C99.32 208.1 109.152 192.449 107.242 164.905Z" fill="#F59200"/>
<path d="M111.647 147.078C96.674 46.449 223.1 27.685 153.4 144.849C157.302 141.601 161.852 139.223 166.746 137.874C174.708 136.146 219.802 128.303 201.669 112.752C201.669 112.752 238.226 96.31 216.796 79.109C216.796 79.109 232.974 57.916 209.232 49.091C209.232 49.091 214.275 24.509 182.759 33.334C182.759 33.334 168.893 14.634 148.303 38.796C148.303 38.796 129.75 29.338 118.888 59.596C93.788 50.166 91.78 99.975 101.547 123.662C104.426 131.669 107.799 139.489 111.647 147.078Z" fill="#FFF8EB"/>
<path d="M318.846 240.853C318.335 234.799 316.339 221.014 308.584 210.944C308.784 205.086 307.978 183.257 287.972 155.198C286.911 148.698 279.381 110.198 247.309 89.757C244.839 85.0342 241.429 80.867 237.288 77.512C233.742 74.634 229.296 79.824 232.788 82.871C239.237 88.291 241.272 93.363 241.288 93.39C274.052 115.375 280.946 153.69 281.179 157.032C281.258 157.6 281.474 158.14 281.809 158.605C303.614 188.82 301.561 211.482 301.539 211.694C301.487 212.164 301.532 212.64 301.669 213.093C301.807 213.546 302.035 213.966 302.339 214.328C310.592 224.179 311.839 239.949 312.009 243.35C310.948 246.229 307.618 249.755 311.309 252.086C314.689 253.941 316.572 250.464 317.7 247.772C324.027 249.158 327.875 256.43 326.1 262.608C325.387 265.667 323.811 268.457 321.56 270.647C319.309 272.838 316.477 274.336 313.4 274.966C312.939 275.029 312.496 275.184 312.096 275.421C311.696 275.658 311.346 275.972 311.069 276.345C306.676 282.259 301.554 285.665 295.844 286.47C286.262 287.823 277.829 281.492 277.753 281.434C277.106 280.934 276.304 280.677 275.487 280.706C274.669 280.736 273.888 281.051 273.279 281.596C270.051 284.623 265.706 281.088 264.986 277.334C264.201 273.904 264.734 270.305 266.48 267.25C272.853 268.489 290.48 270.85 304.339 262.65C308.254 260.241 304.776 254.35 300.772 256.626C288.761 263.739 272.464 261.296 267.394 260.291C263.231 250.741 263.378 240.597 263.778 235.714C269.959 235.686 283.131 234.598 291.278 226.454C294.478 223.146 289.64 218.306 286.328 221.504C279.273 228.56 266.244 228.804 262.195 228.693C253.477 219.681 251.567 206.722 251.152 201.256C257.59 199.227 272.834 192.718 279.141 175.29C279.302 174.857 279.375 174.396 279.357 173.934C279.339 173.473 279.23 173.019 279.035 172.6C278.841 172.181 278.566 171.804 278.225 171.492C277.884 171.18 277.485 170.938 277.051 170.781C276.616 170.623 276.155 170.554 275.694 170.576C275.232 170.598 274.779 170.711 274.362 170.909C273.944 171.106 273.57 171.385 273.26 171.728C272.951 172.071 272.713 172.472 272.559 172.908C266.917 188.497 252.541 193.626 248.129 194.86C239.576 189.231 233.573 178.04 233.511 177.925C233.156 177.281 232.609 176.764 231.946 176.447C231.282 176.13 230.536 176.028 229.812 176.157C229.088 176.285 228.423 176.637 227.909 177.163C227.395 177.689 227.059 178.363 226.948 179.09C224.577 196.622 218.26 201.658 218.256 201.664C217.578 202.14 217.09 202.842 216.881 203.644C216.671 204.446 216.753 205.296 217.112 206.043C226.717 226.051 221.212 242.056 219.54 246.031C207.631 252.493 192.56 253.268 181.876 252.74C180.95 252.698 180.045 253.024 179.358 253.646C178.671 254.268 178.257 255.136 178.207 256.062C178.253 260.884 183.889 259.662 187.298 259.875C197.566 259.875 210.112 258.461 220.942 253.185C230.662 270.109 223.817 293.736 206.698 303.114C196.805 308.826 184.447 311.038 169.973 309.687C163.96 309.13 158.357 306.395 154.218 301.998C150.079 297.601 147.689 291.843 147.496 285.807C146.973 267.844 151.506 256.571 151.549 256.467C151.858 255.723 151.901 254.894 151.67 254.122C147.82 241.43 147.533 227.925 150.838 215.081C161.63 219.472 183.901 220.902 199.231 216.145C199.68 216.031 200.102 215.828 200.472 215.549C200.843 215.271 201.154 214.921 201.388 214.521C201.622 214.121 201.774 213.679 201.836 213.22C201.898 212.76 201.868 212.293 201.747 211.846C201.627 211.398 201.419 210.979 201.136 210.612C200.852 210.246 200.499 209.939 200.096 209.71C199.693 209.481 199.249 209.335 198.789 209.279C198.329 209.223 197.862 209.259 197.416 209.385C173.948 215.685 155.834 209.568 151.277 207.757C145.434 194.41 147.838 180.906 149.498 174.762C159.077 178.983 179.741 181.001 193.789 176.713C194.688 176.48 195.457 175.9 195.927 175.099C196.398 174.299 196.532 173.345 196.299 172.447C196.066 171.548 195.485 170.779 194.685 170.308C193.885 169.838 192.931 169.704 192.032 169.937C178.271 173.575 163.71 172.754 150.445 167.592C149.084 160.411 151.992 153.175 156.1 147.192C158.347 145.425 163.868 141.708 168.645 141.005C175.689 139.527 219.185 132.582 207.484 113.746C219.175 107.733 236.008 92.611 221.394 78.501C227.961 67.901 228.12 53.355 213.014 46.866C213.855 31.466 201.562 24.626 183.951 29.413C173.668 18.992 158.679 21.63 147.276 34.706C134.299 30.88 122.482 40.484 116.795 55.351C101.917 53.11 94.66 65.639 92.968 83.751C59.833 104.726 51.98 130.169 50.387 137.239C33.454 146.319 31.617 165.592 31.523 172.485C17.48 179.287 10.086 195.3 13.213 210.8C3.20003 221.7 2.63503 249.587 23.934 252.115C29.271 258.079 42.186 263.115 52.458 259.343C51.346 273.081 54.743 294.872 74.737 300.336C92.954 304.686 98.674 289.824 98.695 269.436C108.166 260.943 123.407 251.973 144.347 254.017C144.434 254.338 144.516 254.658 144.608 254.982C136.493 280.316 136.208 317.732 177.971 317.067C190.271 317.067 201.079 314.423 210.171 309.172C231.125 297.694 238.944 268.483 226.16 248.254C228.348 242.761 233.442 225.979 224.447 205.307C226.624 202.807 229.903 197.823 232.191 188.783C235.465 193.346 239.475 197.332 244.058 200.577C244.331 206.164 246.08 221.986 256.943 233.362C256.391 238.04 255.606 250.686 260.901 262.935C259.411 265.274 258.399 267.885 257.924 270.617C257.448 273.349 257.518 276.148 258.129 278.853C259.598 286.634 268.548 292.482 275.64 288.445C288.149 296.371 305.093 295.939 315.849 281.584C326.41 279.808 340.036 263.309 330.065 248.376C327.422 244.529 323.408 241.838 318.846 240.853ZM99.776 85.828C100.785 70.762 106.412 58.74 117.412 62.771C117.853 62.9725 118.332 63.0805 118.817 63.0884C119.302 63.0962 119.784 63.0037 120.231 62.8167C120.679 62.6296 121.083 62.3521 121.419 62.0014C121.754 61.6508 122.013 61.2346 122.18 60.779C126.727 47.099 136.435 37.484 146.711 41.915C147.412 42.2723 148.213 42.3829 148.985 42.2291C149.756 42.0752 150.454 41.6658 150.964 41.067C160.916 28.895 172.339 26.373 179.946 35.419C180.369 35.9873 180.954 36.4139 181.624 36.6426C182.294 36.8713 183.018 36.8914 183.7 36.7C193.042 34.085 199.763 34.351 203.137 37.468C207.159 41.184 205.812 48.327 205.8 48.384C205.632 49.2025 205.763 50.0541 206.168 50.7848C206.573 51.5155 207.227 52.0771 208.01 52.368C223.737 57.748 218.582 70.659 214.01 76.981C213.456 77.7071 213.207 78.6211 213.318 79.5278C213.428 80.4345 213.889 81.2622 214.601 81.834C229.852 92.827 208.501 105.766 200.229 109.556C199.684 109.801 199.21 110.182 198.854 110.662C198.497 111.143 198.27 111.706 198.193 112.299C198.117 112.892 198.193 113.495 198.416 114.05C198.638 114.605 198.999 115.094 199.464 115.47C201.064 116.77 202.892 118.634 202.485 120.176C200.572 126.942 177.591 132.038 162.736 135.362C176.815 107.918 188.279 75.92 165.315 62.986C162.021 61.2898 158.375 60.39 154.669 60.3587C150.964 60.3274 147.303 61.1657 143.981 62.806C120.654 73.049 107.203 101.429 107.144 128.588C101.438 114.914 98.531 99.977 99.776 85.828ZM96.176 206.559C95.9031 207.104 95.7772 207.711 95.811 208.32C97.049 230.407 89.888 249.237 90.189 251.645C91.91 259.738 93.689 287.218 85.555 292.592C83.355 294.307 80.423 294.632 76.588 293.584C54.461 286.139 58.05 258.676 63.014 243.445C70.546 249.427 79.864 249.515 80.334 249.515C84.92 249.435 84.934 242.62 80.346 242.515C80.246 242.515 70.319 242.356 64.714 235.315C61.8557 223.262 63.4422 210.582 69.182 199.604C74.0239 202.803 79.6185 204.679 85.41 205.046C89.783 205.001 90.116 198.531 85.738 198.062C77.45 197.272 73.068 193.994 71.551 192.604C71.035 188.139 69.751 170.068 80.857 159.28C84.4891 160.976 88.3734 162.068 92.357 162.513C96.65 162.479 97.095 156.149 92.809 155.543C89.521 155.118 86.324 154.161 83.343 152.71C82.554 149.223 80.937 139.358 85.234 130.41C85.4329 129.996 85.5482 129.546 85.5734 129.087C85.5986 128.628 85.5331 128.169 85.3807 127.735C85.2283 127.301 84.992 126.902 84.6853 126.56C84.3786 126.217 84.0074 125.939 83.593 125.74C83.1786 125.541 82.7291 125.426 82.2702 125.401C81.8112 125.375 81.3518 125.441 80.9182 125.593C80.4845 125.746 80.0851 125.982 79.7428 126.289C79.4005 126.595 79.1219 126.967 78.923 127.381C73.84 137.97 75.393 149.135 76.412 153.826C62.412 166.873 63.912 187.909 64.591 193.462C56.7338 206.467 54.3152 222.043 57.859 236.818C56.1391 241.569 54.7459 246.431 53.689 251.372C38.881 258.404 28.638 246.927 28.206 246.43C26.319 244.394 22.978 245.585 20.66 244.042C11.829 240.074 12.26 226.358 15.93 219.318C21.3 230.8 32.69 238.106 48.575 240.093C49.4961 240.208 50.4253 239.953 51.1581 239.383C51.8909 238.813 52.3673 237.976 52.4825 237.055C52.5978 236.133 52.3424 235.204 51.7725 234.471C51.2027 233.739 50.3651 233.262 49.444 233.147C38.23 232.034 23.276 225.814 20.244 210.326C17.475 198.091 22.577 185.432 33.268 179.493C35.522 184.136 41.642 192.969 51.368 194.862C55.303 194.916 56.197 189.089 52.352 188.003C43.24 185.328 39.278 176.075 38.512 174.055C38.435 171.046 38.573 153.039 51.989 144.405C53.82 147.305 57.689 153.168 62.743 154.221C63.5107 154.21 64.2536 153.948 64.8582 153.474C65.4628 153.001 65.8958 152.343 66.0911 151.601C66.2865 150.858 66.2334 150.072 65.9399 149.363C65.6464 148.653 65.1288 148.06 64.466 147.672C60.454 145.409 58.008 141.017 57.115 139.172C58.17 134.399 64.499 111.862 92.515 92.43C92.239 111.651 99.507 130.647 108.215 148.021C109.037 156.974 104.726 162.455 104.553 162.669C103.977 163.362 103.691 164.251 103.753 165.15C105.381 191.438 96.778 205.493 96.171 206.559H96.176ZM142.749 246.868C126.75 245.895 110.947 250.809 98.32 260.682C97.963 256.248 97.457 252.754 97.22 251.242C98.649 246.442 103.698 227.82 102.849 208.88C105.438 204.193 112.183 189.465 110.821 165.924C114.478 160.143 115.993 153.263 115.102 146.481C115.002 145.91 105.702 89.21 147.052 69.105C156.542 64.144 169.198 70.269 170.758 80.939C173.758 88.677 166.785 118.371 147.676 147.573C143.638 154.219 142.213 162.128 143.676 169.766C142.1 174.278 136.795 192.266 144.848 210.592C141.211 222.334 140.489 234.785 142.744 246.868H142.749Z" fill="black"/>
<path d="M163.249 250.341C158.525 249.369 157.231 256.43 161.985 257.232C166.648 258.169 167.973 251.171 163.249 250.341Z" fill="black"/>
<path d="M237.452 118.012C236.781 117.371 235.883 117.022 234.955 117.042C234.027 117.063 233.146 117.451 232.504 118.122C214.341 137.111 221.663 165.667 221.984 166.874C222.23 167.762 222.817 168.517 223.616 168.975C224.415 169.433 225.363 169.558 226.253 169.322C227.144 169.086 227.906 168.508 228.373 167.714C228.84 166.92 228.976 165.974 228.75 165.081C228.682 164.822 222.15 139.081 237.562 122.961C237.88 122.629 238.129 122.237 238.296 121.809C238.462 121.38 238.542 120.923 238.532 120.464C238.522 120.004 238.421 119.551 238.236 119.13C238.051 118.71 237.784 118.33 237.452 118.012Z" fill="black"/>
</svg>
