<svg width="340" height="340" viewBox="0 0 340 340" fill="none" xmlns="http://www.w3.org/2000/svg">
<path d="M133.761 311.682C151.342 310.049 169.051 310.395 186.555 312.712L255.832 97.928L237.547 38.438L142 45.134L128.61 96.126L133.761 311.682Z" fill="#BC6C25"/>
<path d="M176.492 183.883C176.492 183.883 152.248 234.083 176.14 320.526C176.915 323.515 178.561 326.205 180.868 328.256C183.176 330.307 186.041 331.626 189.1 332.045C201.486 333.597 223.226 334.177 245.1 324.477C245.1 324.477 232.505 257.409 238.8 199.158C238.8 199.158 255.173 239.147 257.692 288.582C257.692 288.582 275.955 294.882 293.903 286.382C293.903 286.382 285.086 177.751 256.433 108.482C256.433 108.475 204.238 122.636 176.492 183.883Z" fill="#F59200"/>
<path d="M166.181 263.629C174.831 233.606 174.681 202.545 174.147 189.84C170.372 200.689 163.622 226.077 166.181 263.629Z" fill="#BC6C25"/>
<path d="M168.645 174.018C168.645 174.018 176.384 251.986 139.445 322.718C137.954 325.557 135.607 327.856 132.738 329.288C129.868 330.72 126.62 331.213 123.455 330.697C112.364 328.905 95.333 325.03 85.146 317.239C85.146 317.239 115.574 256.784 116.518 197.903C116.518 197.903 92.388 212.387 77.904 270.638C77.904 270.638 55.863 272.838 46.104 261.192C46.104 261.192 61.304 153.448 124.709 85.464C124.7 85.46 157.687 108.889 168.645 174.018Z" fill="#F59200"/>
<path d="M124.7 89.72C124.7 89.72 154.294 126.264 168.642 174.02C168.642 174.02 161.692 95.999 145.102 64.836L124.7 89.72Z" fill="#FFF8EB"/>
<path d="M176.492 183.883C176.492 183.883 186.357 125.591 241.061 85.46L250.701 117.072C250.701 117.072 203.172 139.267 176.492 183.883Z" fill="#FFF8EB"/>
<path d="M145.1 64.834L124.7 89.72C124.7 89.72 128.8 94.791 134.694 103.614C139.115 103.57 144.194 101.765 146.671 94.645C148.118 90.4517 149.986 86.416 152.248 82.6C150.393 76.4791 148.001 70.5339 145.1 64.834Z" fill="#F59200"/>
<path d="M241.061 85.46C235.21 89.7517 229.647 94.4217 224.406 99.44C225.29 104.587 227.89 110.662 235.135 111.922C235.654 115.978 237.193 119.836 239.609 123.135C246.377 119.093 250.701 117.072 250.701 117.072L241.061 85.46Z" fill="#F59200"/>
<path d="M252.271 119.426C242.317 119.645 242.723 105.18 242.63 105.189C237.164 105.755 234.183 101.939 234.845 96.483C240.365 51.015 200.705 48.243 200.705 48.243C160.705 44.591 145.798 74.801 141.123 88.536C140.159 91.4586 138.19 93.9446 135.566 95.5518C132.942 97.159 129.832 97.783 126.791 97.313C116.5 95.54 116.632 82.321 116.632 82.321C116.632 82.321 87.932 72.457 124.703 42.863C124.703 42.863 118.874 27.055 135.24 17.08C135.24 17.08 156.688 3.40399 175.558 17.98C175.558 17.98 190.392 2.73399 218.193 8.33899C218.193 8.33899 241.285 10.805 231.645 25.827C231.645 25.827 259.416 26.039 267.133 51.612C268.463 56.698 266.111 62.29 259.221 61.474C259.221 61.471 287.5 118.651 252.271 119.426Z" fill="#FFF8EB"/>
<path d="M43.415 263.436C51.415 272.986 66.087 274.307 73.589 274.307C78.123 274.042 79.927 274.907 81.297 271.479C88.734 241.565 98.744 223.7 105.831 213.979C106.106 213.608 106.304 213.186 106.415 212.738C106.526 212.29 106.547 211.824 106.477 211.368C106.407 210.912 106.247 210.474 106.008 210.079C105.768 209.685 105.452 209.342 105.079 209.07C104.706 208.798 104.283 208.602 103.834 208.494C103.385 208.387 102.919 208.369 102.464 208.442C102.008 208.515 101.571 208.677 101.178 208.92C100.785 209.162 100.444 209.48 100.175 209.855C92.923 219.799 82.785 237.764 75.14 267.279C69.784 267.427 56.847 267 49.816 260.061C51.93 247.086 67.856 159.029 119 97.254C121.643 99.6532 125.087 100.979 128.656 100.972C138.544 115.132 155.377 142.231 165.19 174.699C165.665 180.267 171.176 254.393 136.336 321.094C135.188 323.284 133.379 325.057 131.165 326.16C128.952 327.263 126.447 327.64 124.007 327.238C115.231 325.82 99.69 322.547 89.593 316.08C96.1525 302.047 101.791 287.601 106.472 272.835C109.708 273.868 115.065 275.457 122.161 277.14C121.661 280.169 119.661 284.44 123.998 285.607C128.389 286.231 128.28 281.642 128.998 278.665C130.59 278.955 132.285 279.434 133.973 279.597C134.836 279.585 135.665 279.254 136.3 278.669C136.934 278.083 137.331 277.284 137.412 276.424C137.494 275.565 137.256 274.705 136.743 274.01C136.23 273.316 135.479 272.835 134.633 272.66C125.815 270.989 117.101 268.811 108.533 266.139C120.326 225.491 122.223 196.626 119.399 146.539C118.809 142.039 111.999 142.71 112.445 147.345C114.315 163.555 113.028 197.377 113.014 197.839C112.093 255.208 82.314 315.062 82.014 315.66C81.6475 316.388 81.5468 317.222 81.7294 318.017C81.912 318.812 82.3663 319.518 83.014 320.013C94.614 328.531 112.276 332.95 125.921 334.39C138.759 334.214 142.867 324.49 147.467 314.305C153.46 314.114 161.787 314.077 171.167 314.689C172.88 325.181 177.148 333.812 188.667 335.515C207.254 337.498 225.336 336.67 246.522 327.674C247.243 327.354 247.834 326.8 248.201 326.102C248.568 325.404 248.688 324.603 248.542 323.828C248.43 323.228 238.369 268.808 240.989 216.207C245.928 232.2 252.677 258.83 254.202 288.757C254.237 289.454 254.481 290.125 254.9 290.683C255.32 291.241 255.897 291.661 256.557 291.888C257.357 292.164 276.388 298.546 295.405 289.538C300.951 290.659 288.905 197.944 268.213 130.538C267.927 129.655 267.302 128.921 266.475 128.498C265.649 128.076 264.688 127.999 263.804 128.285C262.921 128.57 262.187 129.195 261.765 130.022C261.342 130.849 261.265 131.81 261.551 132.693C281.091 193.071 288.851 269.537 290.198 284.183C278.017 289.083 265.906 287.052 261.052 285.883C258.309 240.514 244.525 204.099 242.322 198.527C242.431 194.103 243.012 170.242 243.251 155.827C243.251 151.251 236.393 151.067 236.251 155.712C236.021 202.907 231.307 231.349 235.108 272.238C221.013 275.426 206.617 277.093 192.166 277.208C191.238 277.224 190.354 277.608 189.71 278.275C189.065 278.943 188.711 279.839 188.727 280.767C189.17 286.145 196.262 283.667 199.75 283.976L200.275 289.011C200.318 289.472 200.452 289.919 200.67 290.327C200.887 290.736 201.183 291.097 201.541 291.39C201.899 291.683 202.311 291.903 202.754 292.036C203.197 292.169 203.662 292.213 204.122 292.165C204.582 292.117 205.028 291.978 205.434 291.757C205.841 291.535 206.199 291.236 206.489 290.875C206.778 290.514 206.993 290.1 207.122 289.655C207.25 289.211 207.29 288.746 207.237 288.286L206.745 283.561C216.487 282.839 226.164 281.407 235.697 279.275C237.557 299.962 240.115 316.119 241.174 322.349C220.474 330.765 200.089 329.899 189.536 328.577C187.171 328.271 184.953 327.259 183.17 325.675C181.388 324.09 180.123 322.006 179.542 319.693C159.772 239.629 178.135 189.354 179.634 185.473C195.921 158.35 219.941 139.632 237.248 128.7C237.641 128.457 237.983 128.138 238.252 127.762C238.522 127.386 238.714 126.961 238.818 126.51C238.922 126.06 238.936 125.593 238.858 125.137C238.781 124.681 238.614 124.245 238.367 123.854C238.12 123.463 237.798 123.125 237.419 122.859C237.041 122.593 236.614 122.405 236.162 122.305C235.71 122.205 235.243 122.196 234.788 122.278C234.333 122.36 233.899 122.531 233.51 122.782C219.518 131.62 201.279 145.382 185.867 164.43C195.425 138.917 211.001 116.09 231.272 97.887C231.193 103.195 234.265 107.604 239.386 108.545C240.509 117.766 245.225 123.086 252.353 122.93C284.915 122.43 271.566 79.93 264.416 64.415C269.756 62.531 272.216 55.966 270.488 50.602C264.262 29.97 245.973 24.39 236.901 22.883C241.118 9.868 223.743 5.164 218.737 4.883C195.5 0.242001 180.75 9.284 175.35 13.527C155.421 0.370001 134.284 13.538 133.419 14.091C127.087 17.95 122.966 23.048 121.168 29.246C119.984 33.708 126.523 35.585 127.891 31.196C129.191 26.732 132.271 22.988 137.122 20.031C137.316 19.908 156.689 7.831 173.422 20.747C174.102 21.272 174.951 21.5286 175.808 21.468C176.665 21.4073 177.47 21.0336 178.069 20.418C178.205 20.279 191.869 6.598 217.504 11.768C220.345 12.089 228.204 13.649 230.15 17.519C230.904 19.102 230.418 21.26 228.702 23.933C228.373 24.4611 228.19 25.0669 228.17 25.6888C228.151 26.3108 228.297 26.9267 228.592 27.4742C228.888 28.0216 229.323 28.4811 229.854 28.806C230.385 29.1309 230.992 29.3096 231.614 29.324C232.644 29.336 256.926 29.893 263.785 52.624C264.195 53.8813 264.095 55.2492 263.508 56.434C262.062 59.606 258.416 56.495 256.382 59.434C256.01 59.9494 255.786 60.5562 255.733 61.1894C255.681 61.8225 255.801 62.4581 256.082 63.028C260.672 72.321 271.069 98.939 264.154 110.343C261.954 113.976 258.039 115.804 252.192 115.933C247.323 116.023 246.3 109.365 246.147 105.376C246.158 104.844 246.054 104.317 245.843 103.829C245.631 103.341 245.317 102.905 244.921 102.55C244.559 102.237 244.137 102.002 243.681 101.858C243.225 101.715 242.745 101.665 242.269 101.714C239.341 102.149 237.869 100.114 238.319 96.914C243.093 64.662 221.983 46.621 201.019 44.767C163.336 42.206 146.972 63.267 137.805 87.417C137.105 89.548 135.676 91.3638 133.77 92.5448C131.863 93.7257 129.6 94.1961 127.381 93.873C120.181 92.633 120.126 82.773 120.127 82.366C120.132 81.6344 119.908 80.9195 119.487 80.3209C119.067 79.7223 118.47 79.2697 117.78 79.026C104.273 72.889 106.98 61.926 126.857 45.626C129.21 43.9171 131.749 42.4799 134.425 41.342C134.849 41.165 135.234 40.9063 135.559 40.5804C135.883 40.2546 136.14 39.8681 136.315 39.443C136.489 39.0179 136.579 38.5625 136.578 38.1028C136.577 37.6432 136.485 37.1882 136.308 36.764C136.131 36.3398 135.872 35.9545 135.546 35.6303C135.221 35.3061 134.834 35.0492 134.409 34.8744C133.984 34.6995 133.528 34.6101 133.069 34.6112C132.609 34.6124 132.154 34.704 131.73 34.881C128.486 36.2572 125.413 38.0056 122.573 40.091C102.23 55.833 94.319 74.502 113.248 84.661C113.489 86.9228 114.052 89.1387 114.918 91.242C57.5 159.334 42.775 259.686 42.632 260.7C42.5636 261.185 42.598 261.68 42.7329 262.151C42.8677 262.623 43.1001 263.06 43.415 263.436ZM150.593 307.227C156.145 293.977 160.615 280.299 163.957 266.327C164.931 280.189 166.828 293.971 169.637 307.581C162.417 307.174 155.875 307.13 150.593 307.227ZM200.461 51.735C214.308 52.996 232.507 63.984 231.861 88.17C184.469 126.946 174.086 177.57 173.108 182.91C173.003 183.175 172.852 183.564 172.667 184.068C171.578 167.424 168.529 119.66 152.675 73.195C160.926 61.288 175.5 49.456 200.461 51.735ZM144.437 89.664C145.446 86.7076 146.653 83.8227 148.05 81.029C154.458 100.085 158.933 125.729 161.693 145.313C154.529 129.23 145.93 113.825 136 99.286C139.97 97.315 143.002 93.8573 144.437 89.664Z" fill="black"/>
</svg>
