<svg width="340" height="340" viewBox="0 0 340 340" fill="none" xmlns="http://www.w3.org/2000/svg">
<path d="M167.7 9.1C167.7 9.1 189 44.049 239.054 28.117L197.975 106.187L159.645 93.76C159.645 93.76 158.78 42.969 167.7 9.1Z" fill="#52B788"/>
<path d="M237.915 37.026L281.925 75.535C284.507 77.7916 286.155 80.9289 286.549 84.335C288.135 98.117 292.354 136.617 294.556 174.361L247.872 181.422C247.872 181.422 225.118 270.082 225.511 330.889C194.049 329.289 164.647 326.431 142.236 319.317C138.437 318.083 135.037 315.854 132.391 312.862C129.745 309.87 127.948 306.224 127.188 302.302C127.188 302.282 127.181 302.272 127.18 302.274C110.101 321.492 67.915 303.188 45.444 284.205C50.515 272.352 56.844 258.263 60.038 245.86L89.382 139.45L61.921 111.2L98.321 38.408C99.2066 36.6343 100.464 35.0724 102.008 33.8289C103.552 32.5853 105.346 31.6893 107.268 31.202C119.462 28.109 149.292 21.887 167.862 16.109L177.731 91.287L237.915 37.026Z" fill="#95D5B2"/>
<path d="M167.7 9.1L175.037 70.8C175.037 70.8 164.178 68.764 149.337 79.123C148.905 79.425 148.401 79.6062 147.876 79.6479C147.351 79.6895 146.824 79.59 146.351 79.3597C145.877 79.1295 145.473 78.7768 145.182 78.3381C144.89 77.8995 144.721 77.3909 144.692 76.865C144.128 66.324 143.458 42.523 147.199 21.755C147.47 20.0968 148.171 18.5386 149.232 17.236C150.293 15.9333 151.677 14.9316 153.246 14.331L167.7 9.1Z" fill="#FFF8EB"/>
<path d="M193 77.523C201.521 82.2567 208.285 89.617 212.283 98.507C212.5 99.0026 212.849 99.4291 213.292 99.7402C213.734 100.051 214.254 100.235 214.793 100.271C215.333 100.308 215.873 100.195 216.353 99.9466C216.833 99.6978 217.236 99.3219 217.518 98.86L246.818 50.578C247.953 48.7072 248.514 46.544 248.43 44.3572C248.347 42.1704 247.622 40.0565 246.347 38.278L239.061 28.115L193 77.523Z" fill="#FFF8EB"/>
<path d="M199.741 135.211L237.3 146.046L229.379 175.346C229.018 176.682 228.333 177.907 227.383 178.913C226.433 179.919 225.25 180.675 223.937 181.112L211.155 185.373C209.578 185.898 207.88 185.943 206.278 185.501C204.675 185.059 203.24 184.15 202.155 182.891L193.749 173.132C192.868 172.109 192.247 170.889 191.939 169.575C191.63 168.261 191.644 166.892 191.978 165.584L199.741 135.211Z" fill="#FFF8EB"/>
<path d="M102.019 313.746C106.914 314.155 111.843 313.778 116.619 312.629C117.518 312.399 118.29 311.821 118.763 311.022C119.236 310.224 119.373 309.269 119.143 308.37C118.913 307.471 118.335 306.699 117.536 306.226C116.738 305.753 115.783 305.616 114.884 305.846C96.644 309.838 71.855 300.254 49.67 283.214C54.632 271.672 60.27 258.867 63.408 246.794L92.738 140.428C93.896 136.373 104.219 103.819 104.748 100.47L109.748 77.722C110.661 73.255 103.988 71.711 102.911 76.222L97.911 98.969C97.424 102.048 88.802 129.125 87.767 132.775L66.163 110.546L101.447 39.977C102.108 38.6531 103.047 37.4872 104.199 36.559C105.352 35.6307 106.691 34.9619 108.125 34.598C117.874 32.18 131.725 29.149 142.901 26.417C139.083 52.855 141.456 81.403 141.566 82.684C141.628 83.3162 141.86 83.9197 142.238 84.4308C142.615 84.9419 143.123 85.3416 143.709 85.5875C144.294 85.8334 144.936 85.9165 145.565 85.8278C146.194 85.7392 146.787 85.4822 147.282 85.084C158.614 75.731 167.765 74.243 171.945 74.131L174.165 91.044C171.531 100.79 139.108 218.444 123.688 302.365C124.46 307.027 126.5 311.386 129.585 314.965C132.67 318.545 136.68 321.206 141.177 322.657C166.007 330.531 199.277 333.073 225.511 334.393C226.441 334.387 227.332 334.014 227.988 333.354C228.643 332.694 229.011 331.801 229.011 330.871C228.627 271.224 251.036 183.179 251.263 182.296C251.363 181.856 257.876 153.412 266.329 137.832C268.429 133.867 262.502 130.407 260.181 134.486C251.369 150.673 244.837 178.995 244.47 180.605C243.935 182.705 222.525 267.239 222.016 327.205C196.889 325.842 166.17 323.246 143.296 315.985C140.197 314.97 137.414 313.169 135.218 310.759C133.022 308.348 131.488 305.41 130.765 302.23C146.385 219.03 177.598 104.949 180.83 93.208L195.343 80.123C195.511 80 238.514 33.809 238.7 33.63L243.5 40.32C244.376 41.5401 244.874 42.9911 244.932 44.4923C244.99 45.9934 244.604 47.4783 243.824 48.762L215.062 96.162C212.93 91.6738 210.12 87.5404 206.731 83.907C203.555 80.591 198.523 85.24 201.601 88.669C205.966 93.3339 209.184 98.9513 211.001 105.076C211.194 105.726 211.571 106.306 212.087 106.745C212.603 107.185 213.236 107.465 213.908 107.552C214.58 107.639 215.263 107.529 215.874 107.235C216.485 106.941 216.997 106.476 217.349 105.896C217.46 105.572 249.849 52.462 249.931 52.179L279.631 78.166C281.56 79.8494 282.791 82.1924 283.083 84.736C284.711 98.887 288.661 135.074 290.883 171.379L262.743 175.636C261.832 175.782 261.015 176.282 260.47 177.027C259.925 177.773 259.697 178.703 259.835 179.616C259.973 180.528 260.466 181.349 261.207 181.9C261.948 182.451 262.876 182.687 263.79 182.557L295.09 177.822C295.953 177.692 296.736 177.244 297.285 176.566C297.835 175.888 298.112 175.029 298.061 174.158C295.872 136.625 291.72 98.558 290.037 83.936C289.546 79.6627 287.478 75.7265 284.237 72.898L251.925 44.634C251.897 41.6208 250.94 38.6897 249.184 36.241L241.9 26.078C241.579 25.635 241.158 25.2735 240.672 25.0226C240.186 24.7716 239.647 24.6382 239.1 24.633C191.349 40.039 171.679 8.353 169.39 6.045C168.954 5.80497 168.472 5.65955 167.976 5.6182C167.479 5.57684 166.98 5.64049 166.51 5.805L152.055 11.042C150.288 11.7067 148.688 12.749 147.367 14.0963C146.045 15.4435 145.033 17.0631 144.402 18.842C136.563 20.773 128.66 22.595 121.622 24.217C110.268 27.409 100.669 26.475 95.186 36.843L58.786 109.636C58.4612 110.286 58.3466 111.02 58.4578 111.738C58.5691 112.455 58.9008 113.12 59.407 113.641L85.47 140.449L56.664 244.934C53.53 257.094 47.199 271.223 42.224 282.834C41.9357 283.512 41.8687 284.263 42.0325 284.982C42.1962 285.7 42.5824 286.348 43.136 286.834C61.23 302.705 86.978 312.543 102.019 313.746ZM182.845 27.605C192.82 34.197 212.945 37.931 228.423 34.388C221.355 41.809 187.803 78.852 180.33 84.232C179.004 75.173 173.721 29.984 172.519 19.96C175.671 22.8778 179.134 25.4414 182.845 27.605ZM150.645 22.377C150.809 21.3227 151.245 20.3294 151.911 19.4956C152.576 18.6617 153.448 18.0162 154.44 17.623L164.748 13.889L171.084 67.189C166.245 67.451 157.984 69.054 148.144 75.701C147.609 64.847 147.1 42.073 150.644 22.377H150.645Z" fill="black"/>
<path d="M199.5 185.172C201.036 186.962 203.071 188.252 205.345 188.879C207.618 189.506 210.027 189.44 212.263 188.691L225.045 184.43C226.906 183.812 228.586 182.742 229.932 181.315C231.278 179.889 232.25 178.151 232.759 176.257L240.68 146.957C240.92 146.071 240.802 145.125 240.351 144.325C239.9 143.525 239.153 142.934 238.271 142.68L200.709 131.845C200.258 131.718 199.787 131.682 199.322 131.74C198.858 131.797 198.409 131.947 198.003 132.18C197.597 132.412 197.242 132.724 196.957 133.096C196.673 133.467 196.465 133.892 196.347 134.345L188.584 164.714C188.111 166.568 188.092 168.509 188.529 170.371C188.966 172.234 189.846 173.964 191.094 175.414L199.5 185.172ZM195.366 166.447L202.236 139.574L233.024 148.455L226.002 174.43C225.792 175.208 225.393 175.923 224.84 176.509C224.286 177.095 223.596 177.535 222.831 177.789L210.049 182.05C209.13 182.358 208.14 182.386 207.205 182.128C206.271 181.87 205.434 181.34 204.803 180.604L196.398 170.845C195.885 170.249 195.524 169.538 195.345 168.772C195.166 168.006 195.174 167.209 195.369 166.447H195.366Z" fill="black"/>
<path d="M192.285 102.424C195.49 99.095 190.678 94.382 187.335 97.474C184.154 100.792 188.981 105.63 192.285 102.424Z" fill="black"/>
<path d="M176.045 148.594C175.196 148.766 174.441 149.247 173.926 149.944C173.412 150.641 173.173 151.504 173.258 152.366C173.343 153.228 173.744 154.028 174.384 154.611C175.025 155.195 175.859 155.52 176.725 155.524C181.773 155.373 181.033 147.77 176.045 148.594Z" fill="black"/>
<path d="M160.185 208.014C156.985 211.324 161.824 216.148 165.135 212.964C168.321 209.621 163.525 204.916 160.185 208.014Z" fill="black"/>
<path d="M152.405 271.254C149.478 267.134 143.556 271.997 147.025 275.674C150 278.6 154.712 274.728 152.405 271.254Z" fill="black"/>
</svg>
